<svg width="13" height="24" viewBox="0 0 13 24" fill="none" xmlns="http://www.w3.org/2000/svg">
<path d="M8.58335 6.79162L8.58335 11.3135C9.97337 11.8049 11.1449 12.772 11.8909 14.0437C12.6369 15.3154 12.9093 16.8098 12.66 18.2629C12.4107 19.7161 11.6557 21.0343 10.5285 21.9846C9.40124 22.9348 7.97436 23.4561 6.50001 23.4561C5.02566 23.4561 3.59878 22.9348 2.47155 21.9846C1.34433 21.0343 0.589337 19.7161 0.340022 18.2629C0.0907067 16.8098 0.36312 15.3154 1.10911 14.0437C1.85511 12.772 3.02665 11.8049 4.41668 11.3135L4.41668 0.541624H8.58335V2.62496H12.75V6.79162H8.58335ZM8.58335 17.2083C8.58335 16.6558 8.36385 16.1259 7.97315 15.7352C7.58245 15.3445 7.05255 15.125 6.50001 15.125C5.94748 15.125 5.41757 15.3445 5.02687 15.7352C4.63617 16.1259 4.41668 16.6558 4.41668 17.2083C4.41668 17.7608 4.63617 18.2907 5.02687 18.6814C5.41757 19.0721 5.94748 19.2916 6.50001 19.2916C7.05255 19.2916 7.58245 19.0721 7.97315 18.6814C8.36385 18.2907 8.58335 17.7608 8.58335 17.2083Z" fill="white"/>
</svg>
