<svg width="13" height="23" viewBox="0 0 13 23" fill="none" xmlns="http://www.w3.org/2000/svg">
<path d="M8.33335 6.24963L8.33335 10.7715C9.72337 11.263 10.8949 12.23 11.6409 13.5017C12.3869 14.7734 12.6593 16.2678 12.41 17.721C12.1607 19.1741 11.4057 20.4923 10.2785 21.4426C9.15124 22.3929 7.72436 22.9141 6.25001 22.9141C4.77566 22.9141 3.34878 22.3929 2.22155 21.4426C1.09433 20.4923 0.339337 19.1741 0.0900219 17.721C-0.159293 16.2678 0.11312 14.7734 0.859114 13.5017C1.60511 12.23 2.77665 11.263 4.16668 10.7715L4.16668 -0.000368118H8.33335V2.08297H12.5V6.24963H8.33335ZM8.33335 16.6663C8.33335 16.1138 8.11385 15.5839 7.72315 15.1932C7.33245 14.8025 6.80255 14.583 6.25001 14.583C5.69748 14.583 5.16757 14.8025 4.77687 15.1932C4.38617 15.5839 4.16668 16.1138 4.16668 16.6663C4.16668 17.2188 4.38617 17.7487 4.77687 18.1394C5.16757 18.5301 5.69748 18.7496 6.25001 18.7496C6.80255 18.7496 7.33245 18.5301 7.72315 18.1394C8.11385 17.7487 8.33335 17.2188 8.33335 16.6663Z" fill="#9B7025"/>
</svg>
