<svg width="75" height="66" viewBox="0 0 75 66" fill="none" xmlns="http://www.w3.org/2000/svg">
<path d="M44.0267 65.6134V43.7085C44.0267 31.7263 46.3669 21.8971 51.0475 14.221C55.9152 6.54496 63.6849 1.86442 74.3566 0.179425V11.6936C67.991 12.4424 63.4977 14.8763 60.8766 18.9952C58.2555 23.1141 56.945 29.6669 56.945 38.6535L48.52 37.5302H74.0757V65.6134H44.0267ZM0.778419 65.6134V43.7085C0.778419 31.7263 3.11869 21.8971 7.79924 14.221C12.667 6.54496 20.4367 1.86442 31.1084 0.179425V11.6936C24.7428 12.4424 20.2495 14.8763 17.6284 18.9952C15.0073 23.1141 13.6967 29.6669 13.6967 38.6535L5.27174 37.5302H30.8275V65.6134H0.778419Z" fill="#B6842C"/>
</svg>
