 <svg
                  width="26"
                  height="18"
                  viewBox="0 0 26 18"
                  fill="none"
                  xmlns="http://www.w3.org/2000/svg"
                >
                  <path
                    d="M5.76562 0C6.88281 0 7.875 0.246094 8.74219 0.738281C9.60938 1.23047 10.2891 1.89062 10.7812 2.71875C11.2812 3.54688 11.5312 4.46094 11.5312 5.46094C11.5312 6.07031 11.4492 6.65625 11.2852 7.21875C11.1211 7.77344 10.9102 8.28906 10.6523 8.76562C10.4023 9.24219 10.1484 9.66406 9.89062 10.0312L4.71094 17.4609H2.22656L7.40625 10.2188L7.92188 10.3125C7.60938 10.6016 7.23438 10.8125 6.79688 10.9453C6.35938 11.0703 5.90625 11.1328 5.4375 11.1328C4.44531 11.1328 3.53516 10.8984 2.70703 10.4297C1.88672 9.95312 1.23047 9.30078 0.738281 8.47266C0.246094 7.63672 0 6.67969 0 5.60156C0 4.53125 0.25 3.57422 0.75 2.73047C1.25781 1.88672 1.94531 1.22266 2.8125 0.738281C3.67969 0.246094 4.66406 0 5.76562 0ZM5.76562 1.92188C5.0625 1.92188 4.43359 2.08203 3.87891 2.40234C3.33203 2.71484 2.89844 3.14453 2.57812 3.69141C2.26562 4.23828 2.10938 4.86719 2.10938 5.57812C2.10938 6.27344 2.26562 6.89844 2.57812 7.45312C2.89844 8 3.33203 8.42969 3.87891 8.74219C4.43359 9.05469 5.0625 9.21094 5.76562 9.21094C6.47656 9.21094 7.10547 9.05469 7.65234 8.74219C8.19922 8.42969 8.62891 8 8.94141 7.45312C9.26172 6.89844 9.42188 6.27344 9.42188 5.57812C9.42188 4.86719 9.26172 4.23828 8.94141 3.69141C8.62891 3.14453 8.19922 2.71484 7.65234 2.40234C7.10547 2.08203 6.47656 1.92188 5.76562 1.92188ZM14.0859 17.4609V16.8281L19.0312 10.8281C19.6797 10.0391 20.2773 9.30469 20.8242 8.625C21.3711 7.94531 21.8086 7.29297 22.1367 6.66797C22.4727 6.03516 22.6406 5.39844 22.6406 4.75781C22.6406 4.20312 22.5117 3.71484 22.2539 3.29297C21.9961 2.86328 21.6406 2.52734 21.1875 2.28516C20.7344 2.04297 20.2109 1.92188 19.6172 1.92188C18.9766 1.92188 18.4023 2.0625 17.8945 2.34375C17.3945 2.61719 16.9961 3 16.6992 3.49219C16.4102 3.97656 16.2656 4.53906 16.2656 5.17969H14.1328C14.1328 4.17969 14.3672 3.28906 14.8359 2.50781C15.3125 1.72656 15.9609 1.11328 16.7812 0.667969C17.6016 0.222656 18.5312 0 19.5703 0C20.5625 0 21.4492 0.207031 22.2305 0.621094C23.0117 1.02734 23.625 1.58984 24.0703 2.30859C24.5234 3.02734 24.75 3.85156 24.75 4.78125C24.75 5.58594 24.582 6.33984 24.2461 7.04297C23.918 7.74609 23.4688 8.46484 22.8984 9.19922C22.3281 9.92578 21.6797 10.7266 20.9531 11.6016L17.7422 15.4922V15.5859L20.2969 15.5391H25.125V17.4609H14.0859Z"
                    fill="#CDD5DB"
                  />
                </svg>