<svg width="53" height="33" viewBox="0 0 53 33" fill="none" xmlns="http://www.w3.org/2000/svg">
<g clip-path="url(#clip0_1046_2539)">
<path d="M14.9189 12.0435C14.9189 12.6791 14.9876 13.1945 15.1079 13.5724C15.2453 13.9504 15.4171 14.3627 15.6576 14.8094C15.7435 14.9468 15.7779 15.0842 15.7779 15.2045C15.7779 15.3763 15.6748 15.5481 15.4514 15.7199L14.3691 16.4414C14.2145 16.5445 14.0599 16.596 13.9225 16.596C13.7507 16.596 13.5789 16.5101 13.4071 16.3555C13.1666 16.0978 12.9604 15.823 12.7886 15.5481C12.6168 15.256 12.445 14.9296 12.256 14.5345C10.916 16.115 9.23244 16.9053 7.20525 16.9053C5.76217 16.9053 4.61113 16.493 3.76934 15.6683C2.92754 14.8437 2.49805 13.7442 2.49805 12.3699C2.49805 10.9096 3.01343 9.72422 4.06139 8.83088C5.10934 7.93754 6.50089 7.49087 8.27038 7.49087C8.85449 7.49087 9.45578 7.54241 10.0914 7.62831C10.7271 7.7142 11.3799 7.85164 12.0671 8.00626V6.75215C12.0671 5.4465 11.7922 4.53598 11.2596 4.00342C10.7099 3.47085 9.78219 3.21316 8.45936 3.21316C7.85807 3.21316 7.23961 3.28187 6.60397 3.43649C5.96832 3.59111 5.34986 3.78008 4.74857 4.0206C4.4737 4.14085 4.26754 4.20957 4.14729 4.24393C4.02703 4.27829 3.94113 4.29547 3.87241 4.29547C3.6319 4.29547 3.51164 4.12367 3.51164 3.7629V2.9211C3.51164 2.64623 3.546 2.44008 3.6319 2.31982C3.7178 2.19956 3.87241 2.0793 4.11293 1.95905C4.71421 1.64981 5.43575 1.39212 6.27755 1.18597C7.11935 0.962632 8.01269 0.859554 8.95757 0.859554C11.0019 0.859554 12.4966 1.3234 13.4586 2.2511C14.4035 3.1788 14.8845 4.58752 14.8845 6.47728V12.0435H14.9189ZM7.94397 14.6548C8.5109 14.6548 9.095 14.5517 9.71347 14.3455C10.3319 14.1394 10.8817 13.7614 11.3455 13.246C11.6204 12.9196 11.8266 12.5588 11.9296 12.1465C12.0327 11.7342 12.1014 11.236 12.1014 10.6519V9.93037C11.6032 9.81011 11.0707 9.70704 10.5209 9.63832C9.97116 9.5696 9.4386 9.53524 8.90603 9.53524C7.755 9.53524 6.9132 9.75857 6.34627 10.2224C5.77935 10.6863 5.50447 11.3391 5.50447 12.1981C5.50447 13.0055 5.71063 13.6068 6.14012 14.0191C6.55243 14.4486 7.15371 14.6548 7.94397 14.6548ZM21.7392 16.5101C21.4299 16.5101 21.2238 16.4586 21.0863 16.3384C20.9489 16.2353 20.8287 15.9948 20.7256 15.6683L16.6884 2.38854C16.5853 2.04495 16.5338 1.82161 16.5338 1.70135C16.5338 1.42648 16.6712 1.27186 16.9461 1.27186H18.6297C18.9561 1.27186 19.1794 1.3234 19.2997 1.44366C19.4371 1.54674 19.5402 1.78725 19.6433 2.11366L22.5294 13.4865L25.2094 2.11366C25.2953 1.77007 25.3984 1.54674 25.5359 1.44366C25.6733 1.34058 25.9138 1.27186 26.223 1.27186H27.5974C27.9238 1.27186 28.1472 1.3234 28.2846 1.44366C28.422 1.54674 28.5423 1.78725 28.611 2.11366L31.3254 13.624L34.2974 2.11366C34.4005 1.77007 34.5208 1.54674 34.641 1.44366C34.7785 1.34058 35.0018 1.27186 35.311 1.27186H36.9087C37.1836 1.27186 37.3382 1.4093 37.3382 1.70135C37.3382 1.78725 37.321 1.87315 37.3039 1.97623C37.2867 2.0793 37.2523 2.21674 37.1836 2.40572L33.0433 15.6855C32.9403 16.0291 32.82 16.2525 32.6826 16.3555C32.5451 16.4586 32.3218 16.5273 32.0297 16.5273H30.5523C30.2259 16.5273 30.0025 16.4758 29.8651 16.3555C29.7277 16.2353 29.6074 16.0119 29.5387 15.6683L26.8759 4.58752L24.2302 15.6512C24.1443 15.9948 24.0412 16.2181 23.9038 16.3384C23.7664 16.4586 23.5258 16.5101 23.2166 16.5101H21.7392ZM43.8149 16.974C42.9216 16.974 42.0283 16.8709 41.1693 16.6648C40.3103 16.4586 39.6403 16.2353 39.1936 15.9776C38.9187 15.823 38.7298 15.6512 38.6611 15.4966C38.5923 15.3419 38.558 15.1701 38.558 15.0155V14.1394C38.558 13.7786 38.6954 13.6068 38.9531 13.6068C39.0562 13.6068 39.1593 13.624 39.2623 13.6583C39.3654 13.6927 39.52 13.7614 39.6918 13.8301C40.2759 14.0878 40.9116 14.294 41.5816 14.4314C42.2688 14.5689 42.9388 14.6376 43.626 14.6376C44.7083 14.6376 45.5501 14.4486 46.1342 14.0706C46.7183 13.6927 47.0275 13.143 47.0275 12.4386C47.0275 11.9576 46.8729 11.5624 46.5637 11.236C46.2544 10.9096 45.6703 10.6176 44.8285 10.3427L42.3375 9.5696C41.0834 9.17447 40.1557 8.59036 39.5888 7.81728C39.0218 7.06138 38.7298 6.21958 38.7298 5.32624C38.7298 4.6047 38.8844 3.96906 39.1936 3.41931C39.5029 2.86956 39.9152 2.38854 40.4305 2.01059C40.9459 1.61546 41.53 1.3234 42.2172 1.11725C42.9044 0.911093 43.626 0.825195 44.3819 0.825195C44.7598 0.825195 45.1549 0.842375 45.5329 0.893914C45.928 0.945452 46.2888 1.01417 46.6496 1.08289C46.9932 1.16879 47.3196 1.25468 47.6288 1.35776C47.938 1.46084 48.1785 1.56392 48.3503 1.66699C48.5909 1.80443 48.7626 1.94187 48.8657 2.09648C48.9688 2.23392 49.0203 2.4229 49.0203 2.66341V3.47085C49.0203 3.83162 48.8829 4.0206 48.6252 4.0206C48.4878 4.0206 48.2644 3.95188 47.9724 3.81444C46.9931 3.36777 45.8937 3.14444 44.6739 3.14444C43.6947 3.14444 42.9216 3.29905 42.389 3.62547C41.8565 3.95188 41.5816 4.45009 41.5816 5.15445C41.5816 5.63548 41.7534 6.04779 42.097 6.3742C42.4406 6.70061 43.0762 7.02702 43.9867 7.31907L46.4262 8.09216C47.6632 8.48729 48.5565 9.03703 49.0891 9.74139C49.6216 10.4458 49.8793 11.2532 49.8793 12.1465C49.8793 12.8853 49.7247 13.5553 49.4326 14.1394C49.1234 14.7235 48.7111 15.2389 48.1785 15.6512C47.646 16.0807 47.0103 16.3899 46.2716 16.6132C45.4985 16.8537 44.6911 16.974 43.8149 16.974Z" fill="#1C1C1C"/>
<path fill-rule="evenodd" clip-rule="evenodd" d="M46.9808 25.5127C41.3288 29.6874 33.1169 31.9035 26.0561 31.9035C16.1607 31.9035 7.24448 28.2443 0.510085 22.1627C-0.0224819 21.6817 0.458546 21.0289 1.09419 21.4068C8.37833 25.633 17.3632 28.1928 26.6574 28.1928C32.9279 28.1928 39.817 26.8871 46.1562 24.2071C47.1011 23.7776 47.9085 24.8256 46.9808 25.5127Z" fill="#B6842C"/>
<path fill-rule="evenodd" clip-rule="evenodd" d="M49.3342 22.8326C48.6126 21.9049 44.5583 22.3859 42.7201 22.6092C42.1703 22.678 42.0844 22.1969 42.5826 21.8362C45.8124 19.5685 51.1209 20.2213 51.7393 20.9772C52.3578 21.7503 51.5675 27.0587 48.5439 29.6013C48.0801 29.9965 47.6334 29.7903 47.8396 29.2749C48.5267 27.5741 50.0557 23.7431 49.3342 22.8326Z" fill="#B6842C"/>
</g>
<defs>
<clipPath id="clip0_1046_2539">
<rect width="52.2259" height="31.2668" fill="white" transform="translate(-0.00195312 0.826172)"/>
</clipPath>
</defs>
</svg>
