<svg width="28" height="20" viewBox="0 0 28 20" fill="none" xmlns="http://www.w3.org/2000/svg">
<path fill-rule="evenodd" clip-rule="evenodd" d="M7.3692 3.01021C8.65199 1.72736 10.2794 0.844259 12.0542 0.468004C13.8289 0.09175 15.6747 0.238507 17.3676 0.890476C19.0606 1.54245 20.5281 2.67162 21.592 4.14106C22.656 5.61049 23.2707 7.35707 23.3617 9.16896C24.5386 9.47396 25.5642 10.1971 26.2467 11.2033C26.9292 12.2094 27.2219 13.4297 27.0701 14.636C26.9183 15.8423 26.3324 16.952 25.422 17.7577C24.5115 18.5634 23.3387 19.01 22.123 19.014H7.12295C5.64797 19.0149 4.2202 18.4941 3.09219 17.5437C1.96418 16.5934 1.20863 15.2747 0.959181 13.821C0.709733 12.3672 0.982466 10.8721 1.72914 9.60007C2.47581 8.32804 3.64829 7.36107 5.0392 6.87021C5.4903 5.41316 6.2901 4.08818 7.3692 3.01021ZM18.6317 9.27271C18.8594 9.03696 18.9854 8.7212 18.9825 8.39346C18.9797 8.06571 18.8482 7.7522 18.6165 7.52044C18.3847 7.28868 18.0712 7.15722 17.7435 7.15437C17.4157 7.15152 17.1 7.27751 16.8642 7.50521L12.748 11.6215L11.1317 10.0052C10.8959 9.77751 10.5802 9.65152 10.2525 9.65437C9.92471 9.65722 9.61119 9.78868 9.37943 10.0204C9.14767 10.2522 9.01621 10.5657 9.01336 10.8935C9.01051 11.2212 9.13651 11.537 9.3642 11.7727L11.8642 14.2727C12.0986 14.507 12.4165 14.6387 12.748 14.6387C13.0794 14.6387 13.3973 14.507 13.6317 14.2727L18.6317 9.27271Z" fill="#B6842C"/>
</svg>
