<svg width="22" height="24" viewBox="0 0 22 24" fill="none" xmlns="http://www.w3.org/2000/svg">
<path d="M21.1495 4.88571L11.2328 0.475707C11.1598 0.441381 11.0802 0.423584 10.9995 0.423584C10.9188 0.423584 10.8392 0.441381 10.7662 0.475707L0.849512 4.88571C0.746972 4.93044 0.659458 5.00372 0.597402 5.0968C0.535346 5.18988 0.501366 5.29885 0.499512 5.41071V8.53737C0.499512 14.2774 3.92951 21.2307 10.7895 23.634C10.9257 23.6803 11.0733 23.6803 11.2095 23.634C18.0695 21.2307 21.4995 14.2774 21.4995 8.53737V5.41071C21.4977 5.29885 21.4637 5.18988 21.4016 5.0968C21.3396 5.00372 21.2521 4.93044 21.1495 4.88571ZM16.4688 8.74737L10.3088 16.5897C10.2193 16.7028 10.107 16.7957 9.97911 16.8624C9.85126 16.9292 9.71079 16.9682 9.56684 16.977L9.50618 16.9794C9.23493 16.9789 8.97488 16.8711 8.78285 16.6795L5.60951 13.5062C5.41814 13.3144 5.31081 13.0544 5.31113 12.7834C5.31146 12.5124 5.41942 12.2527 5.61126 12.0613C5.8031 11.8699 6.06311 11.7626 6.33408 11.7629C6.60506 11.7632 6.8648 11.8712 7.05618 12.063L9.41518 14.422L14.8635 7.48621C15.0338 7.28209 15.277 7.15237 15.5414 7.12459C15.8058 7.0968 16.0706 7.17314 16.2796 7.33739C16.4887 7.50165 16.6255 7.74089 16.661 8.00436C16.6966 8.26782 16.6281 8.53477 16.47 8.74854L16.4688 8.74737Z" fill="#B6842C"/>
</svg>
