<svg width="24" height="24" viewBox="0 0 24 24" fill="none" xmlns="http://www.w3.org/2000/svg">
<path d="M17.504 7.50098H7.5V17.504H17.503L17.504 7.50098Z" fill="#B6842C"/>
<path d="M21.505 5.5V3.5H19.505V1.5H17.504V3.5H15.504V1.5H13.503V3.5H11.503V1.5H9.501V3.5H7.501V1.5H5.5V3.5H3.5V5.5H1.5V7.501H3.5V9.501H1.5V11.502H3.5V13.502H1.5V15.503H3.5V17.503H1.5V19.504H3.5V21.504H5.5V23.505H7.501V21.505H9.501V23.505H11.502V21.505H13.502V23.505H15.503V21.505H17.503V23.505H19.504V21.505H21.504V19.505H23.505V17.504H21.505V15.504H23.505V13.503H21.505V11.503H23.505V9.501H21.505V7.501H23.505V5.5H21.505ZM19.505 19.504H5.5V5.501H19.503L19.505 19.504Z" fill="#B6842C"/>
</svg>
