<svg width="130" height="32" viewBox="0 0 130 32" fill="none" xmlns="http://www.w3.org/2000/svg">
<path d="M35.1267 30.3197C34.7301 30.3197 34.5583 30.0686 34.5186 29.7513H34.479C34.3334 30.1743 33.9501 30.4123 33.4609 30.4123C32.7206 30.4123 32.2842 30.0024 32.2842 29.3546C32.2842 28.7069 32.7602 28.3234 33.7782 28.3234H34.479V27.9796C34.479 27.4771 34.2013 27.2128 33.6461 27.2128C33.0907 27.2128 32.9453 27.4111 32.747 27.7416L32.4165 27.4375C32.6015 27.0673 33.0247 26.75 33.6593 26.75C34.2938 26.75 35.0078 27.1996 35.0078 27.94V29.8702H35.4044V30.3463H35.1003L35.1267 30.3197ZM34.4922 29.3017V28.7201H33.765C33.1436 28.7201 32.866 28.9052 32.866 29.2489V29.3942C32.866 29.7381 33.1436 29.9364 33.5667 29.9364C33.9897 29.9364 34.4922 29.6587 34.4922 29.3017Z" fill="black"/>
<path d="M36.25 30.3161V26.7993H36.7922V27.3678H36.8186C36.9905 26.9711 37.2946 26.7068 37.8102 26.7068C38.3258 26.7068 38.9868 27.1958 38.9868 28.0553V30.3161H38.4448V28.1611C38.4448 27.5397 38.1671 27.2092 37.6515 27.2092C37.1359 27.2092 36.7922 27.4339 36.7922 27.8834V30.3293H36.25V30.3161Z" fill="black"/>
<path d="M41.3525 30.318V29.842H42.0267V26.0344H41.3525V25.5583H43.2563V26.0344H42.5821V29.842H43.2563V30.318H41.3525Z" fill="black"/>
<path d="M44.3391 25.5583H46.2958C47.0759 25.5583 47.5651 26.0476 47.5651 26.7879C47.5651 27.5282 47.1023 27.7531 46.7982 27.7927V27.8323C47.1419 27.8589 47.7369 28.1498 47.7369 28.9429C47.7369 29.7362 47.2081 30.318 46.5073 30.318H44.3391V25.5583ZM44.9075 27.6208H46.2296C46.6793 27.6208 46.9569 27.3829 46.9569 26.9598V26.7217C46.9569 26.2987 46.6793 26.0608 46.2296 26.0608H44.9075V27.6208ZM44.9075 29.8156H46.3222C46.8114 29.8156 47.1155 29.5511 47.1155 29.0752V28.8372C47.1155 28.3613 46.8114 28.0968 46.3222 28.0968H44.9075V29.8024V29.8156Z" fill="black"/>
<path d="M48.8359 25.5583H49.6028L50.9646 28.1232H51.0043L52.3792 25.5583H53.1196V30.318H52.5643V26.3119H52.5247L52.1281 27.1052L50.991 29.181L49.854 27.1052L49.4573 26.3119H49.4177V30.318H48.8625V25.5583H48.8359Z" fill="black"/>
<path d="M55.5386 27.9662C55.5386 26.3796 56.2525 25.4807 57.4557 25.4807C58.6588 25.4807 58.791 25.864 59.0951 26.5251L58.6323 26.8028C58.4473 26.3136 58.0506 25.9963 57.4557 25.9963C56.8607 25.9963 56.1467 26.6441 56.1467 27.6225V28.3365C56.1467 29.3147 56.636 29.9097 57.4557 29.9097C58.2754 29.9097 58.4737 29.566 58.672 29.0504L59.1347 29.3413C58.8306 30.0155 58.249 30.4253 57.4689 30.4253C56.2657 30.4253 55.5518 29.5792 55.5518 27.9926L55.5386 27.9662Z" fill="black"/>
<path d="M59.7297 28.5589C59.7297 27.4351 60.3777 26.7212 61.3163 26.7212C62.255 26.7212 62.9029 27.4483 62.9029 28.5589C62.9029 29.6695 62.255 30.3966 61.3163 30.3966C60.3777 30.3966 59.7297 29.6695 59.7297 28.5589ZM62.3212 28.81V28.3076C62.3212 27.5673 61.9113 27.197 61.3163 27.197C60.7214 27.197 60.3115 27.5541 60.3115 28.3076V28.81C60.3115 29.5504 60.7214 29.9206 61.3163 29.9206C61.9113 29.9206 62.3212 29.5637 62.3212 28.81Z" fill="black"/>
<path d="M63.8416 30.3161V26.7993H64.3836V27.3678H64.4101C64.5687 27.0109 64.8066 26.7068 65.362 26.7068C65.9172 26.7068 66.2478 26.9183 66.4328 27.4207H66.4462C66.5783 27.0373 66.922 26.7068 67.517 26.7068C68.112 26.7068 68.6672 27.1958 68.6672 28.0553V30.3161H68.1252V28.1611C68.1252 27.5397 67.8873 27.2092 67.3584 27.2092C66.8295 27.2092 66.5387 27.4339 66.5387 27.8834V30.3293H65.9966V28.1743C65.9966 27.5529 65.7586 27.2224 65.243 27.2224C64.7274 27.2224 64.4101 27.4471 64.4101 27.8966V30.3425H63.868L63.8416 30.3161Z" fill="black"/>
<path d="M69.8337 26.7993H70.3758V27.3678H70.4022C70.5873 26.9183 70.9443 26.7068 71.4334 26.7068C72.3192 26.7068 72.8613 27.4207 72.8613 28.5445C72.8613 29.6683 72.306 30.3822 71.4334 30.3822C70.5609 30.3822 70.6137 30.1575 70.4022 29.7211H70.3758V31.6514H69.8337V26.7728V26.7993ZM72.2796 28.8618V28.2668C72.2796 27.6454 71.8962 27.2224 71.288 27.2224C70.6799 27.2224 70.3758 27.5133 70.3758 27.8966V29.2055C70.3758 29.6683 70.7856 29.9194 71.288 29.9194C71.7904 29.9194 72.2796 29.4964 72.2796 28.875V28.8618Z" fill="black"/>
<path d="M76.3753 30.3197C75.9786 30.3197 75.8069 30.0686 75.7671 29.7513H75.7275C75.582 30.1743 75.1987 30.4123 74.7095 30.4123C73.9691 30.4123 73.5327 30.0024 73.5327 29.3546C73.5327 28.7069 74.0087 28.3234 75.0268 28.3234H75.7275V27.9796C75.7275 27.4771 75.4498 27.2128 74.8946 27.2128C74.3392 27.2128 74.1939 27.4111 73.9955 27.7416L73.665 27.4375C73.85 27.0673 74.2732 26.75 74.9078 26.75C75.5424 26.75 76.2563 27.1996 76.2563 27.94V29.8702H76.653V30.3463H76.3489L76.3753 30.3197ZM75.7275 29.3017V28.7201H75.0003C74.379 28.7201 74.1013 28.9052 74.1013 29.2489V29.3942C74.1013 29.7381 74.379 29.9364 74.802 29.9364C75.2251 29.9364 75.7275 29.6587 75.7275 29.3017Z" fill="black"/>
<path d="M77.4875 30.3161V26.7993H78.0296V27.3678H78.0561C78.2279 26.9711 78.532 26.7068 79.0476 26.7068C79.5632 26.7068 80.2243 27.1958 80.2243 28.0553V30.3161H79.6823V28.1611C79.6823 27.5397 79.4046 27.2092 78.889 27.2092C78.3734 27.2092 78.0296 27.4339 78.0296 27.8834V30.3293H77.4875V30.3161Z" fill="black"/>
<path d="M83.5155 26.8005H84.0577L82.4843 31.1371C82.3257 31.5602 82.1802 31.6791 81.6646 31.6791H81.3869V31.2031H81.9423L82.2068 30.4496L80.8845 26.8005H81.4267L82.2728 29.1936L82.4315 29.7621H82.4711L82.6562 29.1936L83.5023 26.8005H83.5155Z" fill="black"/>
<path d="M32.3645 6.52026H35.0749V12.3507H41.2888V6.52026H44.0256V20.799H41.2888V14.7966H35.0749V20.799H32.3645V6.52026Z" fill="black"/>
<path d="M45.769 18.0361C45.769 15.8941 47.2763 15.1802 49.114 14.744L52.221 14.03V13.7789C52.221 12.7343 51.5467 12.0865 50.4625 12.0865C49.3785 12.0865 48.7438 12.6815 48.5454 13.6598L46.2185 13.3954C46.5623 11.4387 48.2149 10.1694 50.5683 10.1694C52.9216 10.1694 54.8519 11.8088 54.8519 14.1887V18.3666C54.8519 18.6309 54.9313 18.7103 55.1164 18.7103H55.685V20.7861H54.0984C53.0935 20.7861 52.6441 20.4555 52.6441 19.649C52.6441 18.8425 52.6837 19.1201 52.7895 18.7501L52.5647 18.6707C51.8244 20.2571 50.7534 20.9579 49.2198 20.9579C47.6861 20.9579 45.769 19.7945 45.769 18.0228V18.0361ZM49.9205 19.0541C51.269 19.0541 52.221 18.0757 52.221 16.5289V15.7092L49.9999 16.238C48.8761 16.5023 48.4133 16.8858 48.4133 17.7452C48.4133 18.6045 49.0082 19.0541 49.9205 19.0541Z" fill="black"/>
<path d="M56.6495 17.982L59.1351 17.4927C59.3994 18.5901 60.2721 19.1453 61.4355 19.1453C62.599 19.1453 63.2468 18.6693 63.2468 17.8762C63.2468 17.0829 62.4667 16.911 60.9992 16.6466C59.1483 16.3558 56.742 16.0119 56.742 13.447C56.742 10.8822 58.3946 10.155 61.0918 10.155C63.7888 10.155 65.3358 11.1599 65.7589 13.1694L63.2468 13.5792C63.0221 12.5612 62.1892 12.0324 61.0786 12.0324C59.968 12.0324 59.3069 12.548 59.3069 13.2355C59.3069 13.9231 60.1002 14.2007 61.5678 14.4651C63.4055 14.756 65.8117 15.0996 65.8117 17.6647C65.8117 20.2295 64.1723 21.036 61.4223 21.036C58.6723 21.036 57.0725 20.018 56.623 17.9688L56.6495 17.982Z" fill="black"/>
<path d="M70.0969 20.8106H67.4395V6.12183H70.0969V10.6963C70.0969 11.2252 69.9911 11.7408 69.8458 12.4945L70.0969 12.5737C70.7316 11.0666 71.6835 10.1807 73.4684 10.1807C75.2532 10.1807 76.9323 11.6086 76.9323 14.0413V20.8106H74.2749V14.1207C74.2749 12.9307 73.6799 12.2829 72.5032 12.2829C71.3266 12.2829 70.0969 13.301 70.0969 15.0989V20.8106Z" fill="black"/>
<path d="M82.3785 18.1682C82.3785 18.578 82.5238 18.697 82.8279 18.697H83.9915V20.799H81.5852C80.382 20.799 79.7342 20.1248 79.7342 18.8821V12.5226H78.2666V10.4204H82.3917V18.1682H82.3785ZM79.364 7.64404C79.364 6.74498 80.1043 6.00464 80.977 6.00464C81.8495 6.00464 82.59 6.74498 82.59 7.64404C82.59 8.5431 81.8761 9.25704 80.977 9.25704C80.0779 9.25704 79.364 8.5431 79.364 7.64404Z" fill="black"/>
<path d="M84.8638 13.6741C84.8638 9.39047 87.6799 6.29663 91.752 6.29663C95.8241 6.29663 97.5295 8.27988 98.1511 10.9637L95.4539 11.6116C94.9383 9.73416 93.6955 8.67653 91.7387 8.67653C89.782 8.67653 87.6799 10.739 87.6799 13.6741C87.6799 16.6092 89.3193 18.6717 91.8446 18.6717C94.3697 18.6717 95.0704 17.5875 95.5861 15.5912L98.1377 15.8821C97.5297 19.0815 95.163 21.0648 91.818 21.0648C88.4731 21.0648 84.8638 17.9577 84.8638 13.6873V13.6741Z" fill="black"/>
<path d="M99.2493 15.6028C99.2493 12.4429 101.47 10.1821 104.551 10.1821C107.631 10.1821 109.853 12.4429 109.853 15.6028C109.853 18.7626 107.631 21.0499 104.551 21.0499C101.47 21.0499 99.2493 18.7626 99.2493 15.6028ZM107.208 15.6028C107.208 13.6461 106.164 12.3372 104.551 12.3372C102.938 12.3372 101.893 13.6461 101.893 15.6028C101.893 17.5596 102.951 18.8949 104.551 18.8949C106.151 18.8949 107.208 17.586 107.208 15.6028Z" fill="black"/>
<path d="M111.529 10.4219H113.974V10.8317C113.974 11.3871 113.948 11.8366 113.789 12.6695L114.04 12.7356C114.424 11.3739 115.138 10.4351 116.817 10.4351H117.571V13.0133H116.486C114.992 13.0133 114.186 13.9124 114.186 15.565V20.827H111.529V10.4484V10.4219Z" fill="black"/>
<path d="M118.814 10.4213H121.432V10.8973C121.432 11.3731 121.392 11.7302 121.246 12.5763L121.498 12.6424C122.132 10.9898 123.309 10.1965 124.842 10.1965C127.368 10.1965 129.377 12.2722 129.377 15.6172C129.377 18.9621 127.381 21.0643 124.842 21.0643C122.304 21.0643 122.185 20.271 121.537 18.592L121.313 18.6712C121.432 19.4909 121.471 19.8744 121.471 20.324V24.9911H118.814V10.4213ZM126.733 15.604C126.733 13.5811 125.636 12.3384 124.076 12.3384C122.516 12.3384 121.418 13.5811 121.418 15.604C121.418 17.6268 122.516 18.8961 124.076 18.8961C125.636 18.8961 126.733 17.6532 126.733 15.604Z" fill="black"/>
<path d="M10.8277 0.29248L0.250732 6.40064V21.0497L4.21708 23.337V8.68798L10.8277 4.8802V0.29248Z" fill="black"/>
<path d="M15.0417 0.29248V11.9668H10.824V7.60379L6.84448 9.90433V24.8574L10.824 27.1446V15.5101H15.0417V19.8467L19.0212 17.5461V2.59302L15.0417 0.29248Z" fill="black"/>
<path d="M15.042 27.1578L25.6189 21.0496V6.40062L21.6394 4.11328V18.7625L15.042 22.5701V27.1578Z" fill="black"/>
</svg>
