<svg width="26" height="26" viewBox="0 0 26 26" fill="none" xmlns="http://www.w3.org/2000/svg">
<path fill-rule="evenodd" clip-rule="evenodd" d="M16.2871 0.310791C16.6511 0.310791 17.0002 0.455377 17.2575 0.712742C17.5149 0.970106 17.6595 1.31917 17.6595 1.68314V3.85693H19.5533C20.2813 3.85693 20.9794 4.1461 21.4941 4.66083C22.0088 5.17556 22.298 5.87368 22.298 6.60162V8.49729H24.5285C24.8925 8.49729 25.2416 8.64187 25.4989 8.89924C25.7563 9.1566 25.9009 9.50566 25.9009 9.86963C25.9009 10.2336 25.7563 10.5827 25.4989 10.84C25.2416 11.0974 24.8925 11.242 24.5285 11.242H22.2962V14.7735H24.5285C24.8925 14.7735 25.2416 14.9181 25.4989 15.1754C25.7563 15.4328 25.9009 15.7819 25.9009 16.1458C25.9009 16.5098 25.7563 16.8589 25.4989 17.1162C25.2416 17.3736 24.8925 17.5182 24.5285 17.5182H22.2962V19.4083C22.2962 20.1363 22.007 20.8344 21.4923 21.3491C20.9776 21.8639 20.2794 22.153 19.5515 22.153H17.6613V24.4092C17.6613 24.7731 17.5167 25.1222 17.2594 25.3796C17.002 25.6369 16.6529 25.7815 16.289 25.7815C15.925 25.7815 15.5759 25.6369 15.3186 25.3796C15.0612 25.1222 14.9166 24.7731 14.9166 24.4092V22.153H11.3851V24.4092C11.3851 24.7731 11.2405 25.1222 10.9832 25.3796C10.7258 25.6369 10.3768 25.7815 10.0128 25.7815C9.64881 25.7815 9.29975 25.6369 9.04239 25.3796C8.78502 25.1222 8.64044 24.7731 8.64044 24.4092V22.153H6.7466C6.01866 22.153 5.32054 21.8639 4.80581 21.3491C4.29108 20.8344 4.00191 20.1363 4.00191 19.4083V17.5163H1.77322C1.40926 17.5163 1.06019 17.3718 0.802829 17.1144C0.545465 16.857 0.400879 16.508 0.400879 16.144C0.400879 15.78 0.545465 15.431 0.802829 15.1736C1.06019 14.9162 1.40926 14.7716 1.77322 14.7716H4.00191V11.2401H1.77322C1.40926 11.2401 1.06019 11.0956 0.802829 10.8382C0.545465 10.5808 0.400879 10.2318 0.400879 9.8678C0.400879 9.50383 0.545465 9.15477 0.802829 8.89741C1.06019 8.64004 1.40926 8.49546 1.77322 8.49546H4.00191V6.60345C4.00191 5.87551 4.29108 5.17739 4.80581 4.66266C5.32054 4.14793 6.01866 3.85876 6.7466 3.85876H8.64044V1.68314C8.64044 1.31917 8.78502 0.970106 9.04239 0.712742C9.29975 0.455377 9.64881 0.310791 10.0128 0.310791C10.3768 0.310791 10.7258 0.455377 10.9832 0.712742C11.2405 0.970106 11.3851 1.31917 11.3851 1.68314V3.85693H14.9166V1.68314C14.9166 1.31917 15.0612 0.970106 15.3186 0.712742C15.5759 0.455377 15.925 0.310791 16.289 0.310791M11.7657 8.59609C12.0878 7.12494 14.1811 7.11579 14.5159 8.58512L14.5305 8.64916L14.5598 8.77724C14.7327 9.5082 15.116 10.1725 15.6623 10.6879C16.2087 11.2034 16.8941 11.5474 17.6339 11.6775C19.1709 11.9446 19.1709 14.1477 17.6339 14.4148C16.8898 14.5458 16.2008 14.8931 15.6531 15.4135C15.1053 15.9339 14.7231 16.6042 14.5543 17.3407L14.5159 17.5072C14.1811 18.9765 12.0878 18.9674 11.7657 17.4962L11.7328 17.3517C11.5714 16.6123 11.1933 15.9377 10.6467 15.4143C10.1001 14.8908 9.40991 14.5422 8.66422 14.413C7.13086 14.1459 7.13086 11.9464 8.66422 11.6793C9.40732 11.5504 10.0954 11.2037 10.6411 10.6831C11.1867 10.1625 11.5655 9.4915 11.7291 8.75529L11.7529 8.65099L11.7657 8.59609Z" fill="#B6842C"/>
</svg>
