<svg width="139" height="24" viewBox="0 0 139 24" fill="none" xmlns="http://www.w3.org/2000/svg">
<path d="M59.3923 4.84204C57.6153 4.84204 55.7692 5.2767 53.4845 6.37475L54.7538 9.1914C56.738 8.19724 58.3769 7.76257 59.5771 7.76257C60.9388 7.76257 61.5389 8.21819 61.5389 8.8187V8.85971C61.5389 9.27432 61.1693 9.50213 60.2696 9.58506L58.7008 9.72994C54.7772 10.1026 53.1616 11.6354 53.1616 13.7476V13.8925C53.1616 15.9018 55.0077 17.4755 57.6153 17.4755C59.3324 17.4755 60.8241 16.8249 61.7308 15.6767L62.0233 17.2687H65.5773V10.0407C65.5773 6.62352 63.385 4.84204 59.3923 4.84204ZM59.046 14.7199C57.7311 14.7199 57.1076 14.2643 57.1076 13.5599V13.5189C57.1076 12.8974 57.4995 12.4418 58.9303 12.2559L59.5538 12.173C60.4646 12.0591 61.0241 11.9087 61.5389 11.629V12.5457C61.5389 13.9335 60.5692 14.7199 59.046 14.7199Z" fill="black"/>
<path d="M14.5714 15.1502L25.9747 4.92241L21.4256 0.842773L16.8765 4.92241L19.1409 6.95265L7.74268 17.1823L12.2867 21.2646L16.8359 17.1823L14.5714 15.1502Z" fill="#F04E23"/>
<path d="M12.3376 0.842843L0.935547 11.075L5.48199 15.1549L16.884 4.9228L12.3376 0.842843Z" fill="#F04E23"/>
<path d="M28.2355 6.95881L16.8335 17.1909L21.3799 21.2709L32.782 11.0388L28.2355 6.95881Z" fill="#F04E23"/>
<path d="M71.9217 0.698486H67.8833V17.2649H71.9217V0.698486Z" fill="black"/>
<path d="M46.3784 4.84202C44.5425 4.84202 43.0681 5.57102 42.2567 6.7128L41.9481 5.04888H38.394V21.4057H42.4324V15.735C43.2011 16.7984 44.6552 17.4709 46.3784 17.4709C49.6095 17.4709 52.2405 14.9031 52.2405 11.3611V10.9464C52.2405 7.40717 49.6095 4.83838 46.3784 4.83838M48.0863 11.259C48.0863 13.1225 47.0019 14.4693 45.2015 14.4693C43.4011 14.4693 42.3167 13.1234 42.3167 11.259V11.0521C42.3167 9.18774 43.4011 7.84183 45.2015 7.84183C47.0019 7.84183 48.0863 9.18774 48.0863 11.0521V11.259Z" fill="black"/>
<path d="M126.444 4.84204C122.313 4.84204 119.405 7.40992 119.405 10.9519V11.3665C119.405 14.9076 122.313 17.4764 126.444 17.4764C130.574 17.4764 133.482 14.9085 133.482 11.3665V10.9519C133.482 7.41083 130.574 4.84204 126.444 4.84204ZM129.328 11.2627C129.328 13.1261 128.244 14.473 126.444 14.473C124.643 14.473 123.559 13.1271 123.559 11.2627V11.0558C123.559 9.1914 124.643 7.8455 126.444 7.8455C128.244 7.8455 129.328 9.1914 129.328 11.0558V11.2627Z" fill="black"/>
<path d="M137.207 5.58557V5.5236C137.207 5.17186 136.907 4.9231 136.376 4.9231H135.453V6.8285H135.892V6.18608H136.379L136.746 6.8285H137.23L136.78 6.07491C137.054 5.99927 137.207 5.8152 137.207 5.58557ZM135.891 5.27484H136.375C136.653 5.27484 136.767 5.35776 136.767 5.54456V5.56552C136.767 5.73137 136.652 5.83434 136.375 5.83434H135.891V5.27484Z" fill="black"/>
<path d="M136.292 3.90796C135.046 3.90796 134.099 4.75724 134.099 5.87533C134.099 6.99343 135.046 7.8427 136.292 7.8427C137.538 7.8427 138.484 6.99343 138.484 5.87533C138.484 4.75724 137.538 3.90796 136.292 3.90796ZM136.292 7.57298C135.207 7.57298 134.422 6.86859 134.422 5.87442C134.422 4.88025 135.207 4.17586 136.292 4.17586C137.376 4.17586 138.161 4.88025 138.161 5.87442C138.161 6.86859 137.376 7.57298 136.292 7.57298Z" fill="black"/>
<path d="M107.535 0.698486H103.497V17.2649H107.535V0.698486Z" fill="black"/>
<path d="M115.477 14.4671C114.301 14.4671 113.862 13.9495 113.862 12.8314V7.83961H118.616V5.04392H113.862V2.24731L109.823 2.78586V13.1831C109.823 16.0207 111.439 17.4705 114.67 17.4705C116.101 17.4705 117.785 17.0769 119.171 16.3725L118.017 13.8046C117.208 14.1983 116.078 14.468 115.477 14.468" fill="black"/>
<path d="M94.957 4.84204C93.18 4.84204 91.3339 5.2767 89.0492 6.37475L90.3185 9.1914C92.3027 8.19724 93.9416 7.76257 95.1418 7.76257C96.5035 7.76257 97.1036 8.21819 97.1036 8.8187V8.85971C97.1036 9.27432 96.734 9.50213 95.8343 9.58506L94.2655 9.72994C90.3419 10.1026 88.7263 11.6354 88.7263 13.7476V13.8925C88.7263 15.9018 90.5724 17.4755 93.18 17.4755C94.8961 17.4755 96.3888 16.8249 97.2955 15.6767L97.588 17.2687H101.142V10.0407C101.142 6.62352 98.9497 4.84204 94.957 4.84204ZM94.6107 14.7199C93.2947 14.7199 92.6723 14.2643 92.6723 13.5599V13.5189C92.6723 12.8974 93.0642 12.4418 94.495 12.2559L95.1185 12.173C96.0293 12.0591 96.5888 11.9087 97.1026 11.629V12.5457C97.1026 13.9335 96.1339 14.7199 94.6107 14.7199Z" fill="black"/>
<path d="M80.7587 4.84204C76.6279 4.84204 73.7197 7.40992 73.7197 10.9519V11.3665C73.7197 14.9076 76.6279 17.4764 80.7587 17.4764C84.8895 17.4764 87.7977 14.9085 87.7977 11.3665V10.9519C87.7966 7.41083 84.8895 4.84204 80.7587 4.84204ZM83.6425 11.2627C83.6425 13.1261 82.558 14.473 80.7577 14.473C78.9573 14.473 77.8728 13.1271 77.8728 11.2627V11.0558C77.8728 9.1914 78.9573 7.8455 80.7577 7.8455C82.558 7.8455 83.6425 9.1914 83.6425 11.0558V11.2627Z" fill="black"/>
<path d="M99.7167 23.1887L98.2545 21.4574H98.2443V23.1887H97.2898V20.209H98.3255L99.7573 21.8948H99.7674V20.209H100.722V23.1887H99.7167Z" fill="black"/>
<path d="M102.987 21.995V22.4598H105.018L104.917 23.1887H101.982V20.209H104.917V20.9289H102.987V21.3389H104.511V21.995H102.987Z" fill="black"/>
<path d="M107.047 23.1887V20.9744H105.829V20.209H109.078L109.18 20.9744H107.961V23.1887H107.047Z" fill="black"/>
<path d="M114.055 22.2775L114.562 20.209H115.578L114.664 23.1887H113.445L112.836 21.3845H112.735L112.125 23.1887H110.805L109.993 20.209H111.008L111.618 22.2775L112.328 20.209H113.344L113.953 22.2775H114.055Z" fill="black"/>
<path d="M116.288 21.6936C116.288 20.7222 117.023 20.1135 118.186 20.1135C119.349 20.1135 120.085 20.7222 120.085 21.6936C120.085 22.665 119.35 23.2737 118.186 23.2737C117.023 23.2737 116.288 22.6641 116.288 21.6936ZM119.093 21.6936C119.093 21.1788 118.761 20.8717 118.186 20.8717C117.611 20.8717 117.279 21.1788 117.279 21.6936C117.279 22.2094 117.611 22.5156 118.181 22.5156C118.756 22.5156 119.093 22.2085 119.093 21.6936Z" fill="black"/>
<path d="M121.166 20.209H123.103C123.985 20.209 124.418 20.5835 124.418 21.2779C124.418 21.7545 124.199 22.0789 123.772 22.2319L124.56 23.1906H123.431L122.818 22.4069H122.163V23.1906H121.166V20.209ZM122.974 21.708C123.306 21.708 123.425 21.5421 123.425 21.3161C123.425 21.0902 123.306 20.9289 122.974 20.9289H122.162V21.708H122.974Z" fill="black"/>
<path d="M127.966 21.6396L129.286 23.1796V23.1887H128.169L127.154 22.0406H126.748V23.1887H125.732V20.209H126.748V21.3025H127.154L128.068 20.209H129.286L127.966 21.6396Z" fill="black"/>
<path d="M130.099 22.9874V22.17H130.104C130.659 22.4215 131.2 22.5445 131.67 22.5445C132.026 22.5445 132.206 22.468 132.206 22.3185C132.206 22.1691 132.087 22.1308 131.375 22.0287C130.597 21.9185 130.079 21.7089 130.079 21.1084C130.079 20.5507 130.626 20.1206 131.693 20.1206C132.12 20.1206 132.566 20.2017 132.979 20.3594V21.1685L132.974 21.1731C132.58 20.969 132.049 20.8405 131.622 20.8405C131.242 20.8405 131.091 20.9216 131.091 21.0574C131.091 21.2323 131.323 21.2487 131.907 21.3389C132.685 21.4583 133.203 21.6542 133.203 22.2848C133.203 22.7741 132.795 23.2644 131.623 23.2644C131.044 23.2644 130.583 23.1578 130.099 22.9874Z" fill="black"/>
</svg>
