<svg width="126" height="30" viewBox="0 0 126 30" fill="none" xmlns="http://www.w3.org/2000/svg">
<g clip-path="url(#clip0_1111_1004)">
<path d="M26.4911 17.2376C29.0533 17.2376 32.7603 16.7092 32.7603 13.6616C32.768 13.4264 32.7467 13.1911 32.6969 12.9612L31.171 6.33354C30.8188 4.8753 30.5095 4.21377 27.9494 2.93371C25.9627 1.91786 21.6351 0.240479 20.3551 0.240479C19.1631 0.240479 18.817 1.77654 17.3956 1.77654C16.0275 1.77654 15.0116 0.629615 13.7316 0.629615C12.5027 0.629615 11.7019 1.46728 11.0834 3.18973C11.0834 3.18973 9.36094 8.04779 9.13975 8.75233C9.10459 8.88171 9.08939 9.0157 9.09469 9.14966C9.09469 11.038 16.5292 17.2294 26.4911 17.2294M33.1536 14.8986C33.5079 16.576 33.5079 16.7522 33.5079 16.9734C33.5079 19.8407 30.2842 21.432 26.0467 21.432C16.4699 21.4382 8.08088 15.8264 8.08088 12.1173C8.08033 11.6011 8.18558 11.0901 8.39015 10.6161C4.94526 10.7881 0.486572 11.4026 0.486572 15.339C0.486572 21.7864 15.7633 29.733 27.8593 29.733C37.133 29.733 39.4719 25.5385 39.4719 22.2267C39.4719 19.6215 37.219 16.6641 33.1577 14.8986" fill="#EE0000"/>
<path d="M33.1511 14.8996C33.5054 16.577 33.5054 16.7531 33.5054 16.9743C33.5054 19.8416 30.2817 21.433 26.0442 21.433C16.4673 21.4391 8.07837 15.8274 8.07837 12.1183C8.07782 11.602 8.18307 11.0911 8.38763 10.617L9.13723 8.76147C9.1029 8.88822 9.08771 9.01938 9.09217 9.15061C9.09217 11.0389 16.5267 17.2303 26.4886 17.2303C29.0508 17.2303 32.7578 16.7019 32.7578 13.6544C32.7655 13.4192 32.7442 13.1839 32.6943 12.9539L33.1511 14.8996Z" fill="black"/>
<path d="M119.118 19.144C119.118 21.5792 120.583 22.763 123.253 22.763C124.076 22.7425 124.893 22.627 125.689 22.4189V19.5946C125.18 19.7558 124.649 19.8359 124.116 19.8322C123.016 19.8322 122.608 19.4881 122.608 18.4538V14.1262H125.795V11.2179H122.608V7.53134L119.126 8.28504V11.2179H116.814V14.1262H119.118V19.144ZM108.263 19.2095C108.263 18.4558 109.019 18.0892 110.16 18.0892C110.857 18.0933 111.552 18.1799 112.228 18.3473V19.8117C111.561 20.176 110.811 20.3616 110.051 20.3503C108.933 20.3503 108.263 19.9202 108.263 19.2095ZM109.328 22.806C110.557 22.806 111.549 22.5479 112.474 21.9233V22.6135H115.919V15.31C115.919 12.5328 114.047 11.009 110.924 11.009C109.179 11.009 107.454 11.4186 105.599 12.2583L106.848 14.8225C108.184 14.2614 109.306 13.9173 110.295 13.9173C111.729 13.9173 112.47 14.4764 112.47 15.6192V16.1784C111.626 15.9599 110.757 15.8511 109.885 15.8548C106.955 15.8548 105.189 17.0836 105.189 19.2812C105.189 21.2843 106.783 22.8121 109.324 22.8121M90.3918 22.6196H94.0968V16.7109H100.3V22.6135H104.016V7.53543H100.315V13.3295H94.1111V7.53543H90.4061L90.3918 22.6196ZM76.2886 16.9054C76.2886 15.267 77.581 14.0176 79.2829 14.0176C80.1684 13.9997 81.0282 14.3155 81.6915 14.9024V18.8859C81.3701 19.1896 80.9919 19.4266 80.5785 19.5834C80.1651 19.7401 79.7248 19.8136 79.2829 19.7994C77.6035 19.7994 76.2886 18.5501 76.2886 16.9136M81.7386 22.6217H85.1855V6.78174L81.7038 7.53543V11.8221C80.8175 11.3196 79.8143 11.0596 78.7955 11.0684C75.4796 11.0684 72.8724 13.6305 72.8724 16.9054C72.8629 17.6739 73.0065 18.4365 73.295 19.1488C73.5834 19.861 74.0108 20.5087 74.5523 21.054C75.0938 21.5993 75.7385 22.0313 76.4487 22.3247C77.159 22.6181 77.9205 22.7671 78.689 22.763C79.7878 22.7682 80.8593 22.4215 81.7468 21.7737L81.7386 22.6217ZM65.9212 13.8599C67.019 13.8599 67.9447 14.5706 68.3113 15.6684H63.5598C63.9039 14.5358 64.7661 13.8599 65.9212 13.8599ZM60.0493 16.9321C60.0493 20.25 62.7631 22.8347 66.251 22.8347C68.168 22.8347 69.5689 22.3165 71.0128 21.1102L68.7066 19.0621C68.168 19.6233 67.3713 19.9243 66.425 19.9243C65.83 19.9411 65.2439 19.7773 64.7438 19.4545C64.2437 19.1317 63.853 18.665 63.6233 18.1159H71.7439V17.2495C71.7439 13.6305 69.3108 11.0254 65.9929 11.0254C65.213 11.0136 64.4385 11.1579 63.7151 11.4498C62.9918 11.7417 62.3341 12.1752 61.7807 12.725C61.2273 13.2747 60.7894 13.9296 60.4928 14.651C60.1962 15.3724 60.0468 16.1459 60.0534 16.9259M54.0423 10.7018C55.2712 10.7018 55.9593 11.476 55.9593 12.4037C55.9593 13.3315 55.2712 14.1057 54.0423 14.1057H50.3783V10.7018H54.0423ZM46.6692 22.6135H50.3742V17.1205H53.1944L56.0392 22.6135H60.1866L56.8687 16.5818C57.7119 16.2389 58.4332 15.6515 58.9398 14.8953C59.4464 14.139 59.7151 13.2485 59.7114 12.3382C59.7114 9.62448 57.5794 7.53543 54.3864 7.53543H46.6692V22.6135Z" fill="black"/>
</g>
<defs>
<clipPath id="clip0_1111_1004">
<rect width="125.548" height="29.6973" fill="white" transform="translate(0.381104 0.137451)"/>
</clipPath>
</defs>
</svg>
