<svg width="72" height="36" viewBox="0 0 72 36" fill="none" xmlns="http://www.w3.org/2000/svg">
<path d="M10.2215 35.3766C6.95235 26.8776 3.73461 18.5104 0.495728 10.0899C0.704201 10.0748 0.846205 10.0567 0.987201 10.0567C2.83325 10.0547 4.67929 10.0688 6.52533 10.0446C6.903 10.0396 7.04299 10.1876 7.16385 10.5079C8.41267 13.8072 9.67358 17.1025 10.9325 20.3978C10.9969 20.567 11.0755 20.7301 11.2054 21.0282C11.4129 20.6203 11.576 20.3243 11.717 20.0171C13.1683 16.8547 14.6095 13.6884 16.0798 10.5351C16.1886 10.3024 16.5179 10.0114 16.7214 10.0275C16.9641 10.0476 17.2823 10.3226 17.3972 10.5683C18.9491 13.8868 20.4709 17.2183 22.0017 20.5458C22.0601 20.6737 22.1417 20.7916 22.2706 21.0141C22.4096 20.6838 22.5113 20.4622 22.5989 20.2346C23.8447 16.9887 25.0895 13.7417 26.3333 10.4948C26.4169 10.2773 26.4632 10.0698 26.7925 10.0718C28.6718 10.0809 30.5511 10.0668 32.4314 10.0627C32.4767 10.0627 32.521 10.0869 32.6056 10.1121C32.5492 10.2934 32.5069 10.4686 32.4425 10.6358C29.3224 18.7511 26.2004 26.8665 23.0713 34.9788C23.0078 35.144 22.8487 35.2729 22.7339 35.4179C22.6241 35.285 22.4801 35.1681 22.4116 35.0161C20.7297 31.2978 19.0629 27.5725 17.3669 23.8602C17.2541 23.6135 16.9409 23.3325 16.6982 23.3093C16.4998 23.2902 16.1775 23.5863 16.0607 23.8189C14.2308 27.4315 12.426 31.0561 10.6142 34.6767C10.5186 34.867 10.4078 35.0493 10.2235 35.3786L10.2215 35.3766Z" fill="black"/>
<path d="M42.7731 16.2191V10.2036C42.9986 10.2036 43.196 10.2036 43.3934 10.2036C49.4522 10.2036 55.5101 10.2036 61.5689 10.2036C61.586 10.2036 61.6021 10.2036 61.6192 10.2036C62.3927 10.2066 62.4763 10.3376 62.1157 11.0073C61.4964 12.1564 60.8729 13.3035 60.2485 14.4496C57.5656 19.3734 54.8816 24.2962 52.1997 29.22C51.9439 29.6903 52.0677 29.8887 52.6196 29.8897C55.7246 29.8917 58.8295 29.8907 61.9334 29.8907C62.1298 29.8907 62.3262 29.8907 62.5498 29.8907V35.4208H61.9878C55.7115 35.4208 49.4341 35.4208 43.1578 35.4208C42.3742 35.4208 42.2886 35.2818 42.6411 34.5768C45.5648 28.7386 48.4894 22.9013 51.4131 17.0641C51.7636 16.3631 51.676 16.2201 50.8934 16.2201C48.3928 16.2191 45.8921 16.2201 43.3914 16.2201C43.194 16.2201 42.9966 16.2201 42.7731 16.2201V16.2191Z" fill="black"/>
<path d="M40.407 35.3942H34.332V10.2324H40.407V35.3942Z" fill="black"/>
<path d="M66.4681 11.0528C66.1005 7.82201 65.1166 6.8441 61.2502 5.82288C62.6471 5.4855 64.0349 5.3022 65.0098 4.26991C65.9666 3.25474 66.166 1.89513 66.5034 0.555664C66.7612 3.70895 68.3786 5.52377 71.6215 5.78663C70.3093 6.16228 68.9859 6.3627 68.006 7.3114C67.0029 8.28327 66.8226 9.6328 66.4691 11.0528H66.4681Z" fill="black"/>
</svg>
