<svg width="37" height="37" viewBox="0 0 37 37" fill="none" xmlns="http://www.w3.org/2000/svg">
<path opacity="0.25" fill-rule="evenodd" clip-rule="evenodd" d="M18.25 35.75C27.915 35.75 35.75 27.915 35.75 18.25C35.75 8.58502 27.915 0.75 18.25 0.75C8.58502 0.75 0.75 8.58502 0.75 18.25C0.75 27.915 8.58502 35.75 18.25 35.75Z" stroke="white" stroke-width="1.5"/>
<path d="M20.75 12.625C21.5788 12.625 22.3737 12.9542 22.9597 13.5403C23.5458 14.1263 23.875 14.9212 23.875 15.75V20.75C23.875 21.5788 23.5458 22.3737 22.9597 22.9597C22.3737 23.5458 21.5788 23.875 20.75 23.875H15.75C14.9212 23.875 14.1263 23.5458 13.5403 22.9597C12.9542 22.3737 12.625 21.5788 12.625 20.75V15.75C12.625 14.9212 12.9542 14.1263 13.5403 13.5403C14.1263 12.9542 14.9212 12.625 15.75 12.625H20.75ZM18.25 15.75C17.587 15.75 16.9511 16.0134 16.4822 16.4822C16.0134 16.9511 15.75 17.587 15.75 18.25C15.75 18.913 16.0134 19.5489 16.4822 20.0178C16.9511 20.4866 17.587 20.75 18.25 20.75C18.913 20.75 19.5489 20.4866 20.0178 20.0178C20.4866 19.5489 20.75 18.913 20.75 18.25C20.75 17.587 20.4866 16.9511 20.0178 16.4822C19.5489 16.0134 18.913 15.75 18.25 15.75ZM18.25 17C18.5815 17 18.8995 17.1317 19.1339 17.3661C19.3683 17.6005 19.5 17.9185 19.5 18.25C19.5 18.5815 19.3683 18.8995 19.1339 19.1339C18.8995 19.3683 18.5815 19.5 18.25 19.5C17.9185 19.5 17.6005 19.3683 17.3661 19.1339C17.1317 18.8995 17 18.5815 17 18.25C17 17.9185 17.1317 17.6005 17.3661 17.3661C17.6005 17.1317 17.9185 17 18.25 17ZM21.0625 14.8125C20.8967 14.8125 20.7378 14.8783 20.6206 14.9956C20.5033 15.1128 20.4375 15.2717 20.4375 15.4375C20.4375 15.6033 20.5033 15.7622 20.6206 15.8794C20.7378 15.9967 20.8967 16.0625 21.0625 16.0625C21.2283 16.0625 21.3872 15.9967 21.5044 15.8794C21.6217 15.7622 21.6875 15.6033 21.6875 15.4375C21.6875 15.2717 21.6217 15.1128 21.5044 14.9956C21.3872 14.8783 21.2283 14.8125 21.0625 14.8125Z" fill="white"/>
</svg>
