<svg width="37" height="37" viewBox="0 0 37 37" fill="none" xmlns="http://www.w3.org/2000/svg">
<path opacity="0.25" fill-rule="evenodd" clip-rule="evenodd" d="M18.25 35.75C27.915 35.75 35.75 27.915 35.75 18.25C35.75 8.58502 27.915 0.75 18.25 0.75C8.58502 0.75 0.75 8.58502 0.75 18.25C0.75 27.915 8.58502 35.75 18.25 35.75Z" stroke="white" stroke-width="1.5"/>
<path d="M14.2335 14.7171C15.0529 14.7171 15.7171 14.0529 15.7171 13.2335C15.7171 12.4142 15.0529 11.75 14.2335 11.75C13.4142 11.75 12.75 12.4142 12.75 13.2335C12.75 14.0529 13.4142 14.7171 14.2335 14.7171Z" fill="white"/>
<path d="M15.4698 15.707H12.9973C12.8608 15.707 12.75 15.8178 12.75 15.9543V23.372C12.75 23.5085 12.8608 23.6193 12.9973 23.6193H15.4698C15.6063 23.6193 15.7171 23.5085 15.7171 23.372V15.9543C15.7171 15.8178 15.6063 15.707 15.4698 15.707Z" fill="white"/>
<path d="M22.8376 15.2964C21.7808 14.9344 20.4589 15.2524 19.6662 15.8226C19.639 15.7162 19.5421 15.6371 19.4269 15.6371H16.9543C16.8178 15.6371 16.707 15.7479 16.707 15.8844V23.3021C16.707 23.4386 16.8178 23.5494 16.9543 23.5494H19.4269C19.5634 23.5494 19.6741 23.4386 19.6741 23.3021V17.9712C20.0737 17.6271 20.5885 17.5173 21.0098 17.6963C21.4183 17.8689 21.6522 18.2902 21.6522 18.8515V23.3021C21.6522 23.4386 21.763 23.5494 21.8995 23.5494H24.372C24.5085 23.5494 24.6193 23.4386 24.6193 23.3021V18.3535C24.5911 16.3215 23.6352 15.5694 22.8376 15.2964Z" fill="white"/>
</svg>
