<svg width="25" height="25" viewBox="0 0 25 25" fill="none" xmlns="http://www.w3.org/2000/svg">
<path d="M8.76547 4.31C9.51297 2.1225 12.5355 2.05625 13.4217 4.11125L13.4967 4.31125L14.5055 7.26125C14.7367 7.93779 15.1102 8.55689 15.601 9.07678C16.0918 9.59667 16.6884 10.0053 17.3505 10.275L17.6217 10.3762L20.5717 11.3838C22.7592 12.1313 22.8255 15.1537 20.7717 16.04L20.5717 16.115L17.6217 17.1238C16.945 17.3548 16.3256 17.7283 15.8055 18.2191C15.2854 18.7099 14.8766 19.3065 14.6067 19.9688L14.5055 20.2388L13.498 23.19C12.7505 25.3775 9.72797 25.4438 8.84297 23.39L8.76547 23.19L7.75797 20.24C7.52695 19.5632 7.15344 18.9439 6.66265 18.4238C6.17186 17.9037 5.57521 17.4949 4.91297 17.225L4.64297 17.1238L1.69297 16.1162C-0.495778 15.3687 -0.562028 12.3462 1.49297 11.4612L1.69297 11.3838L4.64297 10.3762C5.31951 10.1451 5.93861 9.77149 6.4585 9.28071C6.97839 8.78993 7.38699 8.19336 7.65672 7.53125L7.75797 7.26125L8.76547 4.31ZM11.1317 5.1175L10.1242 8.0675C9.77221 9.09913 9.19956 10.0416 8.44614 10.8294C7.69273 11.6171 6.77666 12.2312 5.76172 12.6287L5.44922 12.7425L2.49922 13.75L5.44922 14.7575C6.48085 15.1095 7.42335 15.6822 8.21109 16.4356C8.99883 17.189 9.61288 18.1051 10.0105 19.12L10.1242 19.4325L11.1317 22.3825L12.1392 19.4325C12.4912 18.4009 13.0639 17.4584 13.8173 16.6706C14.5707 15.8829 15.4868 15.2688 16.5017 14.8713L16.8142 14.7587L19.7642 13.75L16.8142 12.7425C15.7826 12.3905 14.8401 11.8178 14.0524 11.0644C13.2646 10.311 12.6506 9.39493 12.253 8.38L12.1405 8.0675L11.1317 5.1175ZM21.1317 2.25859e-07C21.3656 -2.94965e-07 21.5947 0.0655979 21.7932 0.189339C21.9916 0.313081 22.1513 0.490003 22.2542 0.7L22.3142 0.84625L22.7517 2.12875L24.0355 2.56625C24.2698 2.64587 24.4753 2.79327 24.6258 2.98977C24.7763 3.18627 24.865 3.42302 24.8808 3.67003C24.8966 3.91703 24.8387 4.16316 24.7145 4.37723C24.5903 4.5913 24.4053 4.76367 24.183 4.8725L24.0355 4.9325L22.753 5.37L22.3155 6.65375C22.2357 6.88804 22.0882 7.09337 21.8916 7.24374C21.6951 7.39411 21.4583 7.48274 21.2113 7.4984C20.9643 7.51407 20.7182 7.45606 20.5042 7.33172C20.2902 7.20739 20.1179 7.02233 20.0092 6.8L19.9492 6.65375L19.5117 5.37125L18.228 4.93375C17.9936 4.85413 17.7882 4.70673 17.6377 4.51023C17.4872 4.31373 17.3984 4.07698 17.3826 3.82997C17.3668 3.58297 17.4247 3.33684 17.549 3.12277C17.6732 2.9087 17.8582 2.73633 18.0805 2.6275L18.228 2.5675L19.5105 2.13L19.948 0.84625C20.0323 0.599282 20.1917 0.384886 20.404 0.233124C20.6163 0.0813613 20.8708 -0.000156602 21.1317 2.25859e-07Z" fill="black"/>
</svg>
