<svg width="29" height="21" viewBox="0 0 29 21" fill="none" xmlns="http://www.w3.org/2000/svg">
<path d="M1 13.6736C1 14.4615 1.1552 15.2417 1.45672 15.9697C1.75825 16.6976 2.20021 17.3591 2.75736 17.9162C3.88258 19.0415 5.4087 19.6736 7 19.6736H23C24.1813 19.6757 25.3194 19.2298 26.1848 18.4257C27.0502 17.6217 27.5785 16.5193 27.6631 15.3411C27.7477 14.1628 27.3823 12.9963 26.6406 12.0769C25.8989 11.1575 24.8361 10.5536 23.6667 10.3869C23.6797 8.11861 22.8662 5.92319 21.3782 4.21105C19.8903 2.49891 17.8297 1.38725 15.5818 1.08387C13.3338 0.780496 11.0523 1.30617 9.16369 2.56262C7.27511 3.81908 5.90874 5.72031 5.32 7.91093C4.07327 8.27456 2.97818 9.03288 2.1992 10.072C1.42022 11.1111 0.999423 12.3749 1 13.6736Z" stroke="black" stroke-width="2" stroke-linejoin="round"/>
<path d="M18.334 9.00781L13.0007 14.3411L10.334 11.6745" stroke="black" stroke-width="2" stroke-linecap="round" stroke-linejoin="round"/>
</svg>
