<svg width="24" height="29" viewBox="0 0 24 29" fill="none" xmlns="http://www.w3.org/2000/svg">
<path d="M12.7909 28.2534L12.7762 28.2561L12.6816 28.3028L12.6549 28.3081L12.6362 28.3028L12.5416 28.2561C12.5273 28.2516 12.5167 28.2539 12.5096 28.2628L12.5042 28.2761L12.4816 28.8468L12.4882 28.8734L12.5016 28.8908L12.6402 28.9894L12.6602 28.9948L12.6762 28.9894L12.8149 28.8908L12.8309 28.8694L12.8362 28.8468L12.8136 28.2774C12.81 28.2632 12.8025 28.2552 12.7909 28.2534ZM13.1442 28.1028L13.1269 28.1054L12.8802 28.2294L12.8669 28.2428L12.8629 28.2574L12.8869 28.8308L12.8936 28.8468L12.9042 28.8561L13.1722 28.9801C13.1891 28.9845 13.202 28.981 13.2109 28.9694L13.2162 28.9508L13.1709 28.1321C13.1665 28.1161 13.1576 28.1063 13.1442 28.1028ZM12.1909 28.1054C12.185 28.1019 12.178 28.1007 12.1713 28.1022C12.1646 28.1037 12.1587 28.1077 12.1549 28.1134L12.1469 28.1321L12.1016 28.9508C12.1025 28.9668 12.11 28.9774 12.1242 28.9828L12.1442 28.9801L12.4122 28.8561L12.4256 28.8454L12.4309 28.8308L12.4536 28.2574L12.4496 28.2414L12.4362 28.2281L12.1909 28.1054Z" fill="#1C1C1C"/>
<path d="M11.064 0.169092C11.5902 -0.0277713 12.1651 -0.053436 12.7067 0.0957593L12.936 0.169092L22.2693 3.66909C22.7426 3.84655 23.1556 4.15483 23.4604 4.55803C23.7652 4.96123 23.9491 5.44273 23.9907 5.94643L24 6.16643V13.3171C23.9999 15.4777 23.4166 17.5981 22.3115 19.4547C21.2064 21.3112 19.6205 22.835 17.7213 23.8651L17.3667 24.0504L12.8947 26.2864C12.6484 26.4094 12.3795 26.4802 12.1046 26.4944C11.8298 26.5086 11.5549 26.466 11.2973 26.3691L11.1053 26.2864L6.63333 24.0504C4.70081 23.0841 3.06503 21.614 1.89867 19.7952C0.73231 17.9765 0.0786407 15.8765 0.00666682 13.7171L0 13.3171V6.16643C7.7534e-06 5.66126 0.143502 5.1665 0.413778 4.73972C0.684054 4.31294 1.06999 3.97172 1.52667 3.75576L1.73067 3.66909L11.064 0.169092ZM12 2.66643L2.66667 6.16643V13.3171C2.6667 14.9904 3.1166 16.633 3.96927 18.0728C4.82194 19.5126 6.04602 20.6967 7.51333 21.5011L7.82667 21.6651L12 23.7518L16.1733 21.6651C17.6703 20.9167 18.9385 19.7797 19.8452 18.3729C20.7518 16.9662 21.2635 15.3415 21.3267 13.6691L21.3333 13.3171V6.16643L12 2.66643ZM16.5773 8.74776C16.8173 8.50863 17.1392 8.36979 17.4778 8.35945C17.8164 8.34911 18.1463 8.46805 18.4004 8.69209C18.6545 8.91613 18.8137 9.22849 18.8459 9.56572C18.878 9.90296 18.7806 10.2398 18.5733 10.5078L18.4627 10.6331L11.484 17.6131C11.2298 17.8673 10.8911 18.0192 10.5322 18.0401C10.1734 18.061 9.81932 17.9494 9.53733 17.7264L9.40933 17.6131L6.204 14.4078C5.96233 14.1684 5.82129 13.8457 5.80976 13.5057C5.79822 13.1657 5.91706 12.8342 6.14195 12.579C6.36685 12.3238 6.68078 12.1642 7.0195 12.1328C7.35822 12.1015 7.6961 12.2008 7.964 12.4104L8.08933 12.5211L10.4467 14.8784L16.5773 8.74776Z" fill="#1C1C1C"/>
</svg>
