<svg width="25" height="25" viewBox="0 0 25 25" fill="none" xmlns="http://www.w3.org/2000/svg">
<path d="M4.25 17.0833L10.0833 13.5833M14.75 11.25L20.5833 7.75M12.4167 4.25V10.0833M12.4167 14.75V20.5833M4.25 7.75L10.0833 11.25M14.75 13.5833L20.5833 17.0833M22.3333 8.91667V15.3333M14.1667 22.3333L20.5833 18.8333M3.66667 18.8333L10.6667 22.3333M2.5 15.9167V8.91667M3.66667 6L10.6667 2.5M21.1667 6L14.1667 2.5" stroke="black" stroke-width="1.5" stroke-linejoin="round"/>
<path d="M12.416 4.25C13.3825 4.25 14.166 3.4665 14.166 2.5C14.166 1.5335 13.3825 0.75 12.416 0.75C11.4495 0.75 10.666 1.5335 10.666 2.5C10.666 3.4665 11.4495 4.25 12.416 4.25Z" stroke="black" stroke-width="1.5" stroke-linejoin="round"/>
<path d="M12.416 24.0859C13.3825 24.0859 14.166 23.3024 14.166 22.3359C14.166 21.3694 13.3825 20.5859 12.416 20.5859C11.4495 20.5859 10.666 21.3694 10.666 22.3359C10.666 23.3024 11.4495 24.0859 12.416 24.0859Z" stroke="black" stroke-width="1.5" stroke-linejoin="round"/>
<path d="M2.5 8.91406C3.4665 8.91406 4.25 8.13056 4.25 7.16406C4.25 6.19756 3.4665 5.41406 2.5 5.41406C1.5335 5.41406 0.75 6.19756 0.75 7.16406C0.75 8.13056 1.5335 8.91406 2.5 8.91406Z" stroke="black" stroke-width="1.5" stroke-linejoin="round"/>
<path d="M22.334 8.91406C23.3005 8.91406 24.084 8.13056 24.084 7.16406C24.084 6.19756 23.3005 5.41406 22.334 5.41406C21.3675 5.41406 20.584 6.19756 20.584 7.16406C20.584 8.13056 21.3675 8.91406 22.334 8.91406Z" stroke="black" stroke-width="1.5" stroke-linejoin="round"/>
<path d="M22.334 19.4141C23.3005 19.4141 24.084 18.6306 24.084 17.6641C24.084 16.6976 23.3005 15.9141 22.334 15.9141C21.3675 15.9141 20.584 16.6976 20.584 17.6641C20.584 18.6306 21.3675 19.4141 22.334 19.4141Z" stroke="black" stroke-width="1.5" stroke-linejoin="round"/>
<path d="M2.5 19.4141C3.4665 19.4141 4.25 18.6306 4.25 17.6641C4.25 16.6976 3.4665 15.9141 2.5 15.9141C1.5335 15.9141 0.75 16.6976 0.75 17.6641C0.75 18.6306 1.5335 19.4141 2.5 19.4141Z" stroke="black" stroke-width="1.5" stroke-linejoin="round"/>
<path d="M12.4173 9.78906L14.7507 11.1016V13.7266L12.4173 15.0391L10.084 13.7266V11.1016L12.4173 9.78906Z" stroke="black" stroke-width="1.5" stroke-linejoin="round"/>
</svg>
