<svg width="25" height="23" viewBox="0 0 25 23" fill="none" xmlns="http://www.w3.org/2000/svg">
<path d="M22.5 0H2.5C1.83696 0 1.20107 0.263392 0.732233 0.732233C0.263392 1.20107 0 1.83696 0 2.5V20C0 20.663 0.263392 21.2989 0.732233 21.7678C1.20107 22.2366 1.83696 22.5 2.5 22.5H22.5C23.163 22.5 23.7989 22.2366 24.2678 21.7678C24.7366 21.2989 25 20.663 25 20V2.5C25 1.83696 24.7366 1.20107 24.2678 0.732233C23.7989 0.263392 23.163 0 22.5 0ZM11.25 17.5H3.75V15H11.25V17.5ZM21.25 12.5H3.75V10H21.25V12.5ZM21.25 7.5H3.75V5H21.25V7.5Z" fill="white"/>
</svg>
