<svg width="21" height="23" viewBox="0 0 21 23" fill="none" xmlns="http://www.w3.org/2000/svg">
<path d="M7.5 10.3701V21.2501C7.5 21.9401 7.5 22.5001 8.75 22.5001H11.25C12.5 22.5001 12.5 21.9401 12.5 21.2501V12.7976C10.5791 12.6768 8.78303 11.8047 7.5 10.3701Z" fill="white"/>
<path fill-rule="evenodd" clip-rule="evenodd" d="M7.99751 7.7512C8.32154 8.45572 8.7916 9.08332 9.37653 9.59243C9.96147 10.1015 10.6479 10.4805 11.3904 10.7043C12.1329 10.928 12.9145 10.9914 13.6833 10.8902C14.4521 10.789 15.1907 10.5256 15.85 10.1174L19.1163 13.3837L20.8838 11.6162L17.6175 8.34995C18.1153 7.54613 18.3962 6.627 18.4327 5.68224C18.4693 4.73749 18.2603 3.79939 17.8262 2.9595C17.392 2.11961 16.7475 1.40662 15.9556 0.890122C15.1637 0.37362 14.2514 0.0712483 13.3078 0.0125163C12.3642 -0.0462158 11.4214 0.140698 10.5716 0.555017C9.72173 0.969337 8.99381 1.59691 8.45887 2.37648C7.92392 3.15605 7.60023 4.061 7.51937 5.00299C7.43851 5.94499 7.60325 6.89186 7.99751 7.7512ZM12.9688 8.43745C12.7913 8.43745 12.6175 8.42245 12.4475 8.39245C11.8176 8.28026 11.2409 7.96715 10.8038 7.49995C10.3366 7.00201 10.0553 6.35826 10.0074 5.67717C9.95946 4.99608 10.1477 4.31927 10.5405 3.7608C10.9333 3.20232 11.5066 2.79631 12.1638 2.61117C12.821 2.42603 13.522 2.47308 14.1485 2.7444C14.7751 3.01571 15.289 3.49471 15.6036 4.10067C15.9182 4.70664 16.0144 5.40253 15.8758 6.0711C15.7373 6.73968 15.3725 7.34006 14.843 7.77109C14.3135 8.20213 13.6515 8.43746 12.9688 8.43745Z" fill="white"/>
<path d="M0 1.25C0 0.56 0 0 1.25 0H3.75C5 0 5 0.56 5 1.25V21.25C5 21.94 5 22.5 3.75 22.5H1.25C0 22.5 0 21.94 0 21.25V1.25ZM16.25 15C15 15 15 15.56 15 16.25V21.25C15 21.94 15 22.5 16.25 22.5H18.75C19.44 22.5 20 22.5 20 21.25V16.25C20 15.56 20 15 18.75 15H16.25Z" fill="white"/>
</svg>
